<svg xmlns="http://www.w3.org/2000/svg" width="50" height="50" viewBox="0 0 17.454 17.454">
            <g id="Group_61494" data-name="Group 61494" transform="translate(-587.713 67.454)">
                <path id="Path_135027" data-name="Path 135027" d="M132.44,44.657a8.725,8.725,0,1,0-5.729,10.928,8.725,8.725,0,0,0,5.729-10.928" transform="translate(472.328 -105.984)" fill="#3c9b14" fill-rule="evenodd" />
                <path id="Path_135028" data-name="Path 135028" d="M149.106,59.667a1,1,0,0,0-.25-.716,2.265,2.265,0,0,0-.848-.491,10.042,10.042,0,0,1-1.031-.447,3.29,3.29,0,0,1-.743-.51,2.047,2.047,0,0,1-.483-.678,2.271,2.271,0,0,1-.173-.927,2.058,2.058,0,0,1,.593-1.52,2.5,2.5,0,0,1,1.575-.691V52.512h.878V53.7a2.293,2.293,0,0,1,1.52.809,2.667,2.667,0,0,1,.549,1.742h-1.586a1.513,1.513,0,0,0-.272-.985.9.9,0,0,0-.727-.326.924.924,0,0,0-.7.255.971.971,0,0,0-.247.705.928.928,0,0,0,.241.669,2.655,2.655,0,0,0,.9.516,10,10,0,0,1,1.078.5,3.121,3.121,0,0,1,.713.527,2.044,2.044,0,0,1,.444.669,2.306,2.306,0,0,1,.154.875,2.049,2.049,0,0,1-.582,1.514,2.552,2.552,0,0,1-1.6.686v1.092h-.872V61.861a2.638,2.638,0,0,1-1.742-.8,2.573,2.573,0,0,1-.617-1.8h1.586a1.459,1.459,0,0,0,.31,1,1.13,1.13,0,0,0,.892.349,1.089,1.089,0,0,0,.763-.255.885.885,0,0,0,.28-.688" transform="translate(448.456 -116.457)" fill="#fff" />
            </g>
        </svg>